<?xml version="1.0" standalone="no"?>
<!DOCTYPE svg PUBLIC "-//W3C//DTD SVG 20010904//EN"
 "http://www.w3.org/TR/2001/REC-SVG-20010904/DTD/svg10.dtd">
<svg version="1.0" xmlns="http://www.w3.org/2000/svg"
 width="851.000000pt" height="851.000000pt" viewBox="0 0 851.000000 851.000000"
 preserveAspectRatio="xMidYMid meet">
<metadata>
Created by potrace 1.11, written by Peter Selinger 2001-2013
</metadata>
<g transform="translate(0.000000,851.000000) scale(0.100000,-0.100000)"
fill="#000000" stroke="none">
<path d="M0 4255 l0 -4235 4255 0 4255 0 0 4235 0 4235 -4255 0 -4255 0 0
-4235z m7500 2665 l0 -290 400 0 400 0 0 -2285 0 -2285 -1258 0 -1259 0 212
-415 212 -415 -158 0 -157 0 -214 413 -215 412 -1036 3 -1037 2 0 -415 0 -415
-145 0 -145 0 0 415 0 415 -1445 0 -1445 0 0 2285 0 2285 2975 0 2975 0 0 290
0 290 670 0 670 0 0 -290z"/>
<path d="M6340 6850 l0 -190 490 0 490 0 0 190 0 190 -490 0 -490 0 0 -190z"/>
<path d="M390 4350 l0 -2070 1355 0 1355 0 0 1665 0 1665 578 0 c317 0 651 -5
742 -10 423 -26 700 -133 903 -350 146 -156 242 -373 276 -625 62 -448 -29
-852 -244 -1083 -95 -103 -237 -192 -375 -237 -77 -25 -77 -25 -29 -46 69 -32
161 -103 239 -186 112 -120 188 -239 375 -591 l107 -202 1199 0 1199 0 0 2070
0 2070 -3840 0 -3840 0 0 -2070z"/>
<path d="M3390 4405 l0 -956 573 4 c530 4 579 6 667 25 187 40 326 110 433
219 67 68 86 94 132 183 75 148 107 305 107 535 0 324 -72 535 -242 706 -103
104 -212 164 -371 206 l-104 27 -597 3 -598 4 0 -956z"/>
<path d="M3390 2746 l0 -466 975 0 c536 0 975 3 975 8 0 17 -174 331 -236 425
-168 256 -297 368 -504 435 -149 49 -206 54 -722 59 l-488 5 0 -466z"/>
</g>
</svg>
