<?xml version="1.0" standalone="no"?>
<!DOCTYPE svg PUBLIC "-//W3C//DTD SVG 20010904//EN"
 "http://www.w3.org/TR/2001/REC-SVG-20010904/DTD/svg10.dtd">
<svg version="1.0" xmlns="http://www.w3.org/2000/svg"
 width="512.000000pt" height="512.000000pt" viewBox="0 0 512.000000 512.000000"
 preserveAspectRatio="xMidYMid meet">
<metadata>
Created by potrace 1.14, written by Peter Selinger 2001-2017
</metadata>
<g transform="translate(0.000000,512.000000) scale(0.100000,-0.100000)"
fill="#000000" stroke="none">
<path d="M0 2560 l0 -2560 2560 0 2560 0 0 2560 0 2560 -2560 0 -2560 0 0
-2560z m3690 2339 c92 -14 161 -49 231 -115 75 -72 116 -152 129 -254 5 -42
10 -410 10 -843 l0 -768 -77 8 c-89 9 -222 10 -303 3 l-55 -5 -3 563 -2 562
-1060 0 -1060 0 0 -1490 0 -1490 663 0 662 0 25 -38 c14 -20 66 -79 115 -131
151 -157 344 -269 562 -328 91 -25 113 -27 306 -27 237 -1 226 5 177 -93 -37
-73 -108 -148 -176 -185 -111 -60 -66 -58 -1274 -58 -961 0 -1113 2 -1165 15
-176 46 -302 187 -325 365 -13 101 -13 3839 0 3940 23 177 147 317 323 365 43
11 237 14 1142 14 713 1 1113 -3 1155 -10z m389 -2238 c262 -77 469 -245 596
-484 50 -93 93 -232 97 -310 l3 -52 -77 -3 -77 -3 -6 38 c-13 75 -36 156 -60
210 -62 140 -190 284 -322 362 -71 42 -216 94 -293 105 l-45 7 63 -63 62 -64
-53 -52 c-29 -29 -57 -52 -62 -52 -6 0 -89 79 -185 175 -145 145 -171 175
-155 181 103 40 385 42 514 5z m-64 -481 c36 -37 43 -40 95 -40 69 0 129 -27
161 -71 24 -34 24 -36 27 -322 3 -279 2 -289 -19 -326 -12 -21 -38 -48 -59
-60 -37 -20 -49 -21 -402 -21 -362 0 -365 0 -399 23 -19 12 -44 42 -56 67 -22
42 -23 55 -23 300 0 140 5 271 10 290 12 45 65 97 111 110 18 6 54 10 79 10
40 0 51 5 85 40 l39 40 156 0 156 0 39 -40z m-973 -608 c12 -62 32 -117 69
-192 46 -91 66 -118 149 -201 83 -84 108 -101 200 -147 99 -48 203 -82 260
-82 22 0 19 6 -35 60 l-60 60 56 56 56 56 178 -177 c98 -98 173 -181 169 -185
-16 -16 -184 -40 -273 -40 -436 1 -837 325 -926 751 -8 39 -15 84 -15 100 l0
29 78 0 77 0 17 -88z"/>
<path d="M3685 2010 c-38 -39 -41 -40 -107 -40 l-68 0 0 -235 0 -235 315 0
315 0 0 235 0 235 -70 0 c-68 0 -72 1 -114 40 l-43 40 -95 0 -94 0 -39 -40z
m225 -138 c93 -69 94 -205 1 -268 -96 -65 -235 1 -248 117 -14 129 145 225
247 151z"/>
</g>
</svg>
